<mxfile host="app.diagrams.net" modified="2023-06-07T08:57:36.432Z" agent="Mozilla/5.0 (Windows NT 10.0; Win64; x64) AppleWebKit/537.36 (KHTML, like Gecko) Chrome/114.0.0.0 Safari/537.36" etag="9pBql38FnZi6LC423Zc8" version="21.3.7">
  <diagram name="Página-1" id="altKlWIEwy7CdVfgzB5W">
    <mxGraphModel dx="477" dy="720" grid="1" gridSize="10" guides="1" tooltips="1" connect="1" arrows="1" fold="1" page="1" pageScale="1" pageWidth="827" pageHeight="1169" math="0" shadow="0">
      <root>
        <mxCell id="0" />
        <mxCell id="1" parent="0" />
        <mxCell id="xb_BVNKUW_JwSUMzYblN-39" value="Inscripción de alumnos nuevos" style="text;whiteSpace=wrap;html=1;rotation=-1;" vertex="1" parent="1">
          <mxGeometry x="1500" y="17.5" width="180" height="32.5" as="geometry" />
        </mxCell>
        <mxCell id="xb_BVNKUW_JwSUMzYblN-164" value="obtención de certificados simples (parte del requerimiento)" style="swimlane;html=1;childLayout=stackLayout;resizeParent=1;resizeParentMax=0;startSize=20;horizontal=0;horizontalStack=1;whiteSpace=wrap;" vertex="1" parent="1">
          <mxGeometry x="890" y="50" width="1280" height="430" as="geometry" />
        </mxCell>
        <mxCell id="xb_BVNKUW_JwSUMzYblN-222" style="edgeStyle=orthogonalEdgeStyle;rounded=0;orthogonalLoop=1;jettySize=auto;html=1;entryX=0;entryY=0.5;entryDx=0;entryDy=0;" edge="1" parent="xb_BVNKUW_JwSUMzYblN-164" source="xb_BVNKUW_JwSUMzYblN-217" target="xb_BVNKUW_JwSUMzYblN-174">
          <mxGeometry relative="1" as="geometry" />
        </mxCell>
        <mxCell id="xb_BVNKUW_JwSUMzYblN-227" style="edgeStyle=orthogonalEdgeStyle;rounded=0;orthogonalLoop=1;jettySize=auto;html=1;entryX=1;entryY=0.5;entryDx=0;entryDy=0;" edge="1" parent="xb_BVNKUW_JwSUMzYblN-164" source="xb_BVNKUW_JwSUMzYblN-181" target="xb_BVNKUW_JwSUMzYblN-173">
          <mxGeometry relative="1" as="geometry">
            <mxPoint x="510" y="320" as="targetPoint" />
            <Array as="points">
              <mxPoint x="970" y="310" />
            </Array>
          </mxGeometry>
        </mxCell>
        <mxCell id="xb_BVNKUW_JwSUMzYblN-165" value="Estudiante" style="swimlane;html=1;startSize=20;" vertex="1" parent="xb_BVNKUW_JwSUMzYblN-164">
          <mxGeometry x="20" width="680" height="430" as="geometry" />
        </mxCell>
        <mxCell id="xb_BVNKUW_JwSUMzYblN-172" style="edgeStyle=orthogonalEdgeStyle;rounded=0;orthogonalLoop=1;jettySize=auto;html=1;entryX=0;entryY=0.5;entryDx=0;entryDy=0;" edge="1" parent="xb_BVNKUW_JwSUMzYblN-165" source="xb_BVNKUW_JwSUMzYblN-170" target="xb_BVNKUW_JwSUMzYblN-171">
          <mxGeometry relative="1" as="geometry" />
        </mxCell>
        <mxCell id="xb_BVNKUW_JwSUMzYblN-170" value="registro y adjunción de datos personales, diploma de bachiller, certificado de habilitación, certificado de nacimiento" style="rounded=0;whiteSpace=wrap;html=1;" vertex="1" parent="xb_BVNKUW_JwSUMzYblN-165">
          <mxGeometry x="50" y="150" width="180" height="60" as="geometry" />
        </mxCell>
        <mxCell id="xb_BVNKUW_JwSUMzYblN-218" style="edgeStyle=orthogonalEdgeStyle;rounded=0;orthogonalLoop=1;jettySize=auto;html=1;entryX=0;entryY=0.5;entryDx=0;entryDy=0;" edge="1" parent="xb_BVNKUW_JwSUMzYblN-165" source="xb_BVNKUW_JwSUMzYblN-171" target="xb_BVNKUW_JwSUMzYblN-217">
          <mxGeometry relative="1" as="geometry" />
        </mxCell>
        <mxCell id="xb_BVNKUW_JwSUMzYblN-171" value="reporte de registro y generación de código CPT" style="rounded=0;whiteSpace=wrap;html=1;" vertex="1" parent="xb_BVNKUW_JwSUMzYblN-165">
          <mxGeometry x="310" y="150" width="120" height="60" as="geometry" />
        </mxCell>
        <mxCell id="xb_BVNKUW_JwSUMzYblN-173" value="notifica la causa de la negativa de matriculación" style="rounded=0;whiteSpace=wrap;html=1;" vertex="1" parent="xb_BVNKUW_JwSUMzYblN-165">
          <mxGeometry x="310" y="280" width="120" height="60" as="geometry" />
        </mxCell>
        <mxCell id="xb_BVNKUW_JwSUMzYblN-179" value="P1" style="text;strokeColor=none;fillColor=none;html=1;fontSize=24;fontStyle=1;verticalAlign=middle;align=center;fontColor=#1543cb;" vertex="1" parent="xb_BVNKUW_JwSUMzYblN-165">
          <mxGeometry x="120" y="220" width="40" height="30" as="geometry" />
        </mxCell>
        <mxCell id="xb_BVNKUW_JwSUMzYblN-180" value="P2" style="text;strokeColor=none;fillColor=none;html=1;fontSize=24;fontStyle=1;verticalAlign=middle;align=center;fontColor=#1543cb;" vertex="1" parent="xb_BVNKUW_JwSUMzYblN-165">
          <mxGeometry x="350" y="220" width="40" height="30" as="geometry" />
        </mxCell>
        <mxCell id="xb_BVNKUW_JwSUMzYblN-183" value="P7" style="text;strokeColor=none;fillColor=none;html=1;fontSize=24;fontStyle=1;verticalAlign=middle;align=center;fontColor=#1543cb;" vertex="1" parent="xb_BVNKUW_JwSUMzYblN-165">
          <mxGeometry x="350" y="360" width="40" height="30" as="geometry" />
        </mxCell>
        <mxCell id="xb_BVNKUW_JwSUMzYblN-219" style="edgeStyle=orthogonalEdgeStyle;rounded=0;orthogonalLoop=1;jettySize=auto;html=1;entryX=0.5;entryY=0;entryDx=0;entryDy=0;exitX=0.5;exitY=0;exitDx=0;exitDy=0;" edge="1" parent="xb_BVNKUW_JwSUMzYblN-165" source="xb_BVNKUW_JwSUMzYblN-217" target="xb_BVNKUW_JwSUMzYblN-171">
          <mxGeometry relative="1" as="geometry">
            <Array as="points">
              <mxPoint x="565" y="90" />
              <mxPoint x="370" y="90" />
            </Array>
          </mxGeometry>
        </mxCell>
        <mxCell id="xb_BVNKUW_JwSUMzYblN-217" value="verificación de pago" style="rhombus;whiteSpace=wrap;html=1;" vertex="1" parent="xb_BVNKUW_JwSUMzYblN-165">
          <mxGeometry x="500" y="140" width="130" height="80" as="geometry" />
        </mxCell>
        <mxCell id="xb_BVNKUW_JwSUMzYblN-221" value="P3" style="text;strokeColor=none;fillColor=none;html=1;fontSize=24;fontStyle=1;verticalAlign=middle;align=center;fontColor=#1543cb;" vertex="1" parent="xb_BVNKUW_JwSUMzYblN-165">
          <mxGeometry x="540" y="220" width="40" height="30" as="geometry" />
        </mxCell>
        <mxCell id="xb_BVNKUW_JwSUMzYblN-166" value="Dirección de admisiones y registros" style="swimlane;html=1;startSize=20;" vertex="1" parent="xb_BVNKUW_JwSUMzYblN-164">
          <mxGeometry x="700" width="580" height="430" as="geometry" />
        </mxCell>
        <mxCell id="xb_BVNKUW_JwSUMzYblN-224" style="edgeStyle=orthogonalEdgeStyle;rounded=0;orthogonalLoop=1;jettySize=auto;html=1;entryX=0;entryY=0.5;entryDx=0;entryDy=0;" edge="1" parent="xb_BVNKUW_JwSUMzYblN-166" source="xb_BVNKUW_JwSUMzYblN-174" target="xb_BVNKUW_JwSUMzYblN-223">
          <mxGeometry relative="1" as="geometry" />
        </mxCell>
        <mxCell id="xb_BVNKUW_JwSUMzYblN-174" value="evaluación y centralización de información del estudiante" style="rounded=0;whiteSpace=wrap;html=1;" vertex="1" parent="xb_BVNKUW_JwSUMzYblN-166">
          <mxGeometry x="20" y="150" width="120" height="60" as="geometry" />
        </mxCell>
        <mxCell id="xb_BVNKUW_JwSUMzYblN-175" value="se asignará un número de carnet universitario y generación de matricula" style="rounded=0;whiteSpace=wrap;html=1;" vertex="1" parent="xb_BVNKUW_JwSUMzYblN-166">
          <mxGeometry x="420" y="150" width="130" height="60" as="geometry" />
        </mxCell>
        <mxCell id="xb_BVNKUW_JwSUMzYblN-182" value="P4" style="text;strokeColor=none;fillColor=none;html=1;fontSize=24;fontStyle=1;verticalAlign=middle;align=center;fontColor=#1543cb;" vertex="1" parent="xb_BVNKUW_JwSUMzYblN-166">
          <mxGeometry x="60" y="220" width="40" height="30" as="geometry" />
        </mxCell>
        <mxCell id="xb_BVNKUW_JwSUMzYblN-181" value="P5" style="text;strokeColor=none;fillColor=none;html=1;fontSize=24;fontStyle=1;verticalAlign=middle;align=center;fontColor=#1543cb;" vertex="1" parent="xb_BVNKUW_JwSUMzYblN-166">
          <mxGeometry x="250" y="220" width="40" height="30" as="geometry" />
        </mxCell>
        <mxCell id="xb_BVNKUW_JwSUMzYblN-226" style="edgeStyle=orthogonalEdgeStyle;rounded=0;orthogonalLoop=1;jettySize=auto;html=1;entryX=0;entryY=0.5;entryDx=0;entryDy=0;" edge="1" parent="xb_BVNKUW_JwSUMzYblN-166" source="xb_BVNKUW_JwSUMzYblN-223" target="xb_BVNKUW_JwSUMzYblN-175">
          <mxGeometry relative="1" as="geometry" />
        </mxCell>
        <mxCell id="xb_BVNKUW_JwSUMzYblN-223" value="¿existencia de observaciones?" style="rhombus;whiteSpace=wrap;html=1;" vertex="1" parent="xb_BVNKUW_JwSUMzYblN-166">
          <mxGeometry x="200" y="140" width="140" height="80" as="geometry" />
        </mxCell>
        <mxCell id="xb_BVNKUW_JwSUMzYblN-228" value="P6" style="text;strokeColor=none;fillColor=none;html=1;fontSize=24;fontStyle=1;verticalAlign=middle;align=center;fontColor=#1543cb;" vertex="1" parent="xb_BVNKUW_JwSUMzYblN-166">
          <mxGeometry x="465" y="220" width="40" height="30" as="geometry" />
        </mxCell>
        <mxCell id="xb_BVNKUW_JwSUMzYblN-185" value="Obtención de certificado de conclusión de estudios" style="swimlane;html=1;childLayout=stackLayout;resizeParent=1;resizeParentMax=0;startSize=20;horizontal=0;horizontalStack=1;whiteSpace=wrap;" vertex="1" parent="1">
          <mxGeometry x="890" y="500" width="1280" height="480" as="geometry" />
        </mxCell>
        <mxCell id="xb_BVNKUW_JwSUMzYblN-186" value="Estudiante" style="swimlane;html=1;startSize=20;" vertex="1" parent="xb_BVNKUW_JwSUMzYblN-185">
          <mxGeometry x="20" width="390" height="480" as="geometry" />
        </mxCell>
        <mxCell id="xb_BVNKUW_JwSUMzYblN-192" value="elaboración de carta de solicitud" style="rounded=0;whiteSpace=wrap;html=1;" vertex="1" parent="xb_BVNKUW_JwSUMzYblN-186">
          <mxGeometry x="200" y="185" width="120" height="60" as="geometry" />
        </mxCell>
        <mxCell id="xb_BVNKUW_JwSUMzYblN-195" value="P1" style="text;strokeColor=none;fillColor=none;html=1;fontSize=24;fontStyle=1;verticalAlign=middle;align=center;fontColor=#1543cb;" vertex="1" parent="xb_BVNKUW_JwSUMzYblN-186">
          <mxGeometry x="240" y="140" width="40" height="30" as="geometry" />
        </mxCell>
        <mxCell id="xb_BVNKUW_JwSUMzYblN-187" value="Unidad de servicios académicos (Kardex académico)" style="swimlane;html=1;startSize=20;" vertex="1" parent="xb_BVNKUW_JwSUMzYblN-185">
          <mxGeometry x="410" width="320" height="480" as="geometry" />
        </mxCell>
        <mxCell id="xb_BVNKUW_JwSUMzYblN-194" value="lista de observaciones" style="rounded=0;whiteSpace=wrap;html=1;" vertex="1" parent="xb_BVNKUW_JwSUMzYblN-187">
          <mxGeometry x="100" y="185" width="120" height="60" as="geometry" />
        </mxCell>
        <mxCell id="xb_BVNKUW_JwSUMzYblN-196" value="P2" style="text;strokeColor=none;fillColor=none;html=1;fontSize=24;fontStyle=1;verticalAlign=middle;align=center;fontColor=#1543cb;" vertex="1" parent="xb_BVNKUW_JwSUMzYblN-187">
          <mxGeometry x="140" y="140" width="40" height="30" as="geometry" />
        </mxCell>
        <mxCell id="xb_BVNKUW_JwSUMzYblN-188" value="Kardex facultativa" style="swimlane;html=1;startSize=20;" vertex="1" parent="xb_BVNKUW_JwSUMzYblN-185">
          <mxGeometry x="730" width="550" height="480" as="geometry" />
        </mxCell>
        <mxCell id="xb_BVNKUW_JwSUMzYblN-200" value="recepción de folder y proceso de preparación" style="rounded=0;whiteSpace=wrap;html=1;" vertex="1" parent="xb_BVNKUW_JwSUMzYblN-188">
          <mxGeometry x="420" y="185" width="120" height="60" as="geometry" />
        </mxCell>
        <mxCell id="xb_BVNKUW_JwSUMzYblN-234" style="edgeStyle=orthogonalEdgeStyle;rounded=0;orthogonalLoop=1;jettySize=auto;html=1;entryX=0;entryY=0.5;entryDx=0;entryDy=0;" edge="1" parent="xb_BVNKUW_JwSUMzYblN-188" source="xb_BVNKUW_JwSUMzYblN-205" target="xb_BVNKUW_JwSUMzYblN-200">
          <mxGeometry relative="1" as="geometry" />
        </mxCell>
        <mxCell id="xb_BVNKUW_JwSUMzYblN-205" value="¿observaciones?" style="rhombus;whiteSpace=wrap;html=1;" vertex="1" parent="xb_BVNKUW_JwSUMzYblN-188">
          <mxGeometry x="230" y="175" width="110" height="80" as="geometry" />
        </mxCell>
        <mxCell id="xb_BVNKUW_JwSUMzYblN-233" style="edgeStyle=orthogonalEdgeStyle;rounded=0;orthogonalLoop=1;jettySize=auto;html=1;entryX=0;entryY=0.5;entryDx=0;entryDy=0;" edge="1" parent="xb_BVNKUW_JwSUMzYblN-188" source="xb_BVNKUW_JwSUMzYblN-199" target="xb_BVNKUW_JwSUMzYblN-205">
          <mxGeometry relative="1" as="geometry" />
        </mxCell>
        <mxCell id="xb_BVNKUW_JwSUMzYblN-199" value="recepción y verificación del cumplimiento de requisitos" style="rounded=0;whiteSpace=wrap;html=1;" vertex="1" parent="xb_BVNKUW_JwSUMzYblN-188">
          <mxGeometry x="40" y="185" width="120" height="60" as="geometry" />
        </mxCell>
        <mxCell id="xb_BVNKUW_JwSUMzYblN-215" value="P3" style="text;strokeColor=none;fillColor=none;html=1;fontSize=24;fontStyle=1;verticalAlign=middle;align=center;fontColor=#1543cb;" vertex="1" parent="xb_BVNKUW_JwSUMzYblN-188">
          <mxGeometry x="80" y="145" width="40" height="30" as="geometry" />
        </mxCell>
        <mxCell id="xb_BVNKUW_JwSUMzYblN-208" value="P5" style="text;strokeColor=none;fillColor=none;html=1;fontSize=24;fontStyle=1;verticalAlign=middle;align=center;fontColor=#1543cb;" vertex="1" parent="xb_BVNKUW_JwSUMzYblN-188">
          <mxGeometry x="460" y="145" width="40" height="30" as="geometry" />
        </mxCell>
        <mxCell id="xb_BVNKUW_JwSUMzYblN-201" value="P4" style="text;strokeColor=none;fillColor=none;html=1;fontSize=24;fontStyle=1;verticalAlign=middle;align=center;fontColor=#1543cb;" vertex="1" parent="xb_BVNKUW_JwSUMzYblN-188">
          <mxGeometry x="265" y="145" width="40" height="30" as="geometry" />
        </mxCell>
        <mxCell id="xb_BVNKUW_JwSUMzYblN-231" style="edgeStyle=orthogonalEdgeStyle;rounded=0;orthogonalLoop=1;jettySize=auto;html=1;entryX=0;entryY=0.5;entryDx=0;entryDy=0;" edge="1" parent="xb_BVNKUW_JwSUMzYblN-185" source="xb_BVNKUW_JwSUMzYblN-192" target="xb_BVNKUW_JwSUMzYblN-194">
          <mxGeometry relative="1" as="geometry" />
        </mxCell>
        <mxCell id="xb_BVNKUW_JwSUMzYblN-232" style="edgeStyle=orthogonalEdgeStyle;rounded=0;orthogonalLoop=1;jettySize=auto;html=1;entryX=0;entryY=0.5;entryDx=0;entryDy=0;" edge="1" parent="xb_BVNKUW_JwSUMzYblN-185" source="xb_BVNKUW_JwSUMzYblN-194" target="xb_BVNKUW_JwSUMzYblN-199">
          <mxGeometry relative="1" as="geometry" />
        </mxCell>
        <mxCell id="xb_BVNKUW_JwSUMzYblN-235" style="edgeStyle=orthogonalEdgeStyle;rounded=0;orthogonalLoop=1;jettySize=auto;html=1;entryX=0.5;entryY=1;entryDx=0;entryDy=0;" edge="1" parent="xb_BVNKUW_JwSUMzYblN-185" source="xb_BVNKUW_JwSUMzYblN-205" target="xb_BVNKUW_JwSUMzYblN-194">
          <mxGeometry relative="1" as="geometry">
            <Array as="points">
              <mxPoint x="1015" y="340" />
              <mxPoint x="570" y="340" />
            </Array>
          </mxGeometry>
        </mxCell>
      </root>
    </mxGraphModel>
  </diagram>
</mxfile>
